Nokyung-B.ufo
<glyph name="slash" format="1">
  <advance width="633"/>
  <unicode hex="002F"/>
  <outline>
    <contour>
      <point x="653" y="1564" type="curve" smooth="yes"/>
      <point x="122" y="-16" type="line" smooth="yes"/>
      <point x="118" y="-29"/>
      <point x="97" y="-35"/>
      <point x="59" y="-35" type="curve" smooth="yes"/>
      <point x="21" y="-35"/>
      <point x="4" y="-29"/>
      <point x="8" y="-16" type="curve" smooth="yes"/>
      <point x="544" y="1564" type="line" smooth="yes"/>
      <point x="549" y="1577"/>
      <point x="569" y="1584"/>
      <point x="605" y="1584" type="curve" smooth="yes"/>
      <point x="642" y="1584"/>
      <point x="658" y="1577"/>
    </contour>
  </outline>
</glyph>
<glyph name="eight" format="1">
  <advance width="956"/>
  <unicode hex="0038"/>
  <outline>
    <contour>
      <point x="876" y="416" type="curve" smooth="yes"/>
      <point x="876" y="305"/>
      <point x="851" y="213"/>
      <point x="802" y="138" type="curve" smooth="yes"/>
      <point x="734" y="35"/>
      <point x="626" y="-17"/>
      <point x="478" y="-17" type="curve" smooth="yes"/>
      <point x="331" y="-17"/>
      <point x="223" y="36"/>
      <point x="154" y="141" type="curve" smooth="yes"/>
      <point x="105" y="216"/>
      <point x="80" y="308"/>
      <point x="80" y="416" type="curve" smooth="yes"/>
      <point x="80" y="634"/>
      <point x="151" y="780"/>
      <point x="292" y="853" type="curve"/>
      <point x="184" y="908"/>
      <point x="130" y="1007"/>
      <point x="130" y="1150" type="curve" smooth="yes"/>
      <point x="130" y="1235"/>
      <point x="159" y="1311"/>
      <point x="216" y="1380" type="curve"/>
      <point x="283" y="1459"/>
      <point x="370" y="1498"/>
      <point x="478" y="1498" type="curve" smooth="yes"/>
      <point x="597" y="1498"/>
      <point x="688" y="1459"/>
      <point x="750" y="1382" type="curve" smooth="yes"/>
      <point x="801" y="1319"/>
      <point x="826" y="1241"/>
      <point x="826" y="1150" type="curve" smooth="yes"/>
      <point x="826" y="1009"/>
      <point x="775" y="911"/>
      <point x="672" y="856" type="curve"/>
      <point x="808" y="791"/>
      <point x="876" y="645"/>
    </contour>
    <contour>
      <point x="693" y="1150" type="curve" smooth="yes"/>
      <point x="693" y="1223"/>
      <point x="675" y="1285"/>
      <point x="638" y="1336" type="curve" smooth="yes"/>
      <point x="598" y="1390"/>
      <point x="545" y="1417"/>
      <point x="478" y="1417" type="curve" smooth="yes"/>
      <point x="412" y="1417"/>
      <point x="359" y="1388"/>
      <point x="319" y="1331" type="curve" smooth="yes"/>
      <point x="283" y="1280"/>
      <point x="265" y="1219"/>
      <point x="265" y="1150" type="curve" smooth="yes"/>
      <point x="265" y="1075"/>
      <point x="282" y="1014"/>
      <point x="317" y="969" type="curve" smooth="yes"/>
      <point x="355" y="919"/>
      <point x="409" y="894"/>
      <point x="478" y="894" type="curve" smooth="yes"/>
      <point x="621" y="894"/>
      <point x="693" y="979"/>
    </contour>
    <contour>
      <point x="743" y="416" type="curve" smooth="yes"/>
      <point x="743" y="537"/>
      <point x="720" y="632"/>
      <point x="675" y="703" type="curve" smooth="yes"/>
      <point x="628" y="776"/>
      <point x="563" y="813"/>
      <point x="478" y="813" type="curve" smooth="yes"/>
      <point x="396" y="813"/>
      <point x="331" y="775"/>
      <point x="283" y="699" type="curve" smooth="yes"/>
      <point x="238" y="626"/>
      <point x="215" y="532"/>
      <point x="215" y="416" type="curve" smooth="yes"/>
      <point x="215" y="313"/>
      <point x="238" y="229"/>
      <point x="284" y="165" type="curve" smooth="yes"/>
      <point x="332" y="98"/>
      <point x="397" y="64"/>
      <point x="478" y="64" type="curve" smooth="yes"/>
      <point x="564" y="64"/>
      <point x="631" y="98"/>
      <point x="678" y="166" type="curve" smooth="yes"/>
      <point x="721" y="229"/>
      <point x="743" y="312"/>
    </contour>
  </outline>
</glyph>
<glyph name="nine" format="1">
  <advance width="956"/>
  <unicode hex="0039"/>
  <outline>
    <contour>
      <point x="876" y="808" type="curve" smooth="yes"/>
      <point x="876" y="559"/>
      <point x="839" y="360"/>
      <point x="765" y="211" type="curve" smooth="yes"/>
      <point x="690" y="59"/>
      <point x="587" y="-17"/>
      <point x="456" y="-17" type="curve" smooth="yes"/>
      <point x="317" y="-17"/>
      <point x="203" y="27"/>
      <point x="115" y="115" type="curve" smooth="yes"/>
      <point x="107" y="123"/>
      <point x="103" y="130"/>
      <point x="103" y="136" type="curve" smooth="yes"/>
      <point x="103" y="144"/>
      <point x="112" y="162"/>
      <point x="129" y="190" type="curve" smooth="yes"/>
      <point x="154" y="230"/>
      <point x="171" y="242"/>
      <point x="181" y="227" type="curve" smooth="yes"/>
      <point x="208" y="186"/>
      <point x="242" y="151"/>
      <point x="283" y="120" type="curve" smooth="yes"/>
      <point x="332" y="83"/>
      <point x="379" y="64"/>
      <point x="424" y="64" type="curve" smooth="yes"/>
      <point x="521" y="64"/>
      <point x="597" y="121"/>
      <point x="651" y="234" type="curve" smooth="yes"/>
      <point x="706" y="347"/>
      <point x="735" y="507"/>
      <point x="740" y="712" type="curve"/>
      <point x="676" y="620"/>
      <point x="592" y="574"/>
      <point x="488" y="574" type="curve" smooth="yes"/>
      <point x="357" y="574"/>
      <point x="256" y="614"/>
      <point x="185" y="695" type="curve" smooth="yes"/>
      <point x="115" y="774"/>
      <point x="80" y="884"/>
      <point x="80" y="1026" type="curve" smooth="yes"/>
      <point x="80" y="1161"/>
      <point x="116" y="1273"/>
      <point x="188" y="1362" type="curve"/>
      <point x="263" y="1453"/>
      <point x="359" y="1499"/>
      <point x="478" y="1499" type="curve" smooth="yes"/>
      <point x="603" y="1499"/>
      <point x="700" y="1441"/>
      <point x="769" y="1326" type="curve" smooth="yes"/>
      <point x="840" y="1206"/>
      <point x="876" y="1033"/>
    </contour>
    <contour>
      <point x="733" y="957" type="curve"/>
      <point x="719" y="1106"/>
      <point x="688" y="1221"/>
      <point x="640" y="1303" type="curve" smooth="yes"/>
      <point x="595" y="1380"/>
      <point x="541" y="1418"/>
      <point x="478" y="1418" type="curve" smooth="yes"/>
      <point x="403" y="1418"/>
      <point x="340" y="1380"/>
      <point x="289" y="1304" type="curve" smooth="yes"/>
      <point x="238" y="1229"/>
      <point x="213" y="1136"/>
      <point x="213" y="1026" type="curve" smooth="yes"/>
      <point x="213" y="915"/>
      <point x="238" y="824"/>
      <point x="289" y="755" type="curve" smooth="yes"/>
      <point x="338" y="688"/>
      <point x="401" y="655"/>
      <point x="478" y="655" type="curve" smooth="yes"/>
      <point x="538" y="655"/>
      <point x="591" y="683"/>
      <point x="637" y="740" type="curve"/>
      <point x="682" y="794"/>
      <point x="714" y="866"/>
    </contour>
  </outline>
</glyph>
<glyph name="greater" format="1">
  <advance width="1970"/>
  <unicode hex="003E"/>
  <outline>
    <contour>
      <point x="1576" y="652" type="line"/>
      <point x="1576" y="530" type="line"/>
      <point x="394" y="77" type="line"/>
      <point x="394" y="199" type="line"/>
      <point x="1450" y="591" type="line"/>
      <point x="394" y="983" type="line"/>
      <point x="394" y="1105" type="line"/>
    </contour>
  </outline>
</glyph>
<glyph name="H" format="1">
  <advance width="1480"/>
  <unicode hex="0048"/>
  <outline>
    <contour>
      <point x="1438" y="37" type="line"/>
      <point x="1438" y="0" type="line"/>
      <point x="857" y="0" type="line"/>
      <point x="857" y="37" type="line"/>
      <point x="906" y="37" type="line" smooth="yes"/>
      <point x="961" y="37"/>
      <point x="1001" y="54"/>
      <point x="1026" y="87" type="curve" smooth="yes"/>
      <point x="1043" y="109"/>
      <point x="1052" y="160"/>
      <point x="1052" y="240" type="curve" smooth="yes"/>
      <point x="1052" y="654" type="line"/>
      <point x="420" y="654" type="line"/>
      <point x="420" y="240" type="line" smooth="yes"/>
      <point x="420" y="157"/>
      <point x="428" y="105"/>
      <point x="445" y="85" type="curve" smooth="yes"/>
      <point x="472" y="53"/>
      <point x="512" y="37"/>
      <point x="567" y="37" type="curve" smooth="yes"/>
      <point x="617" y="37" type="line"/>
      <point x="617" y="0" type="line"/>
      <point x="35" y="0" type="line"/>
      <point x="35" y="37" type="line"/>
      <point x="85" y="37" type="line" smooth="yes"/>
      <point x="138" y="37"/>
      <point x="178" y="54"/>
      <point x="205" y="87" type="curve" smooth="yes"/>
      <point x="221" y="106"/>
      <point x="229" y="157"/>
      <point x="229" y="240" type="curve" smooth="yes"/>
      <point x="229" y="1117" type="line" smooth="yes"/>
      <point x="229" y="1198"/>
      <point x="220" y="1251"/>
      <point x="201" y="1275" type="curve" smooth="yes"/>
      <point x="178" y="1305"/>
      <point x="139" y="1320"/>
      <point x="85" y="1320" type="curve" smooth="yes"/>
      <point x="35" y="1320" type="line"/>
      <point x="35" y="1355" type="line"/>
      <point x="617" y="1355" type="line"/>
      <point x="617" y="1320" type="line"/>
      <point x="567" y="1320" type="line" smooth="yes"/>
      <point x="516" y="1320"/>
      <point x="477" y="1306"/>
      <point x="451" y="1277" type="curve" smooth="yes"/>
      <point x="430" y="1253"/>
      <point x="420" y="1200"/>
      <point x="420" y="1117" type="curve" smooth="yes"/>
      <point x="420" y="727" type="line"/>
      <point x="1052" y="727" type="line"/>
      <point x="1052" y="1117" type="line" smooth="yes"/>
      <point x="1052" y="1204"/>
      <point x="1042" y="1257"/>
      <point x="1023" y="1277" type="curve" smooth="yes"/>
      <point x="994" y="1306"/>
      <point x="955" y="1320"/>
      <point x="906" y="1320" type="curve" smooth="yes"/>
      <point x="857" y="1320" type="line"/>
      <point x="857" y="1355" type="line"/>
      <point x="1438" y="1355" type="line"/>
      <point x="1438" y="1320" type="line"/>
      <point x="1389" y="1320" type="line" smooth="yes"/>
      <point x="1340" y="1320"/>
      <point x="1301" y="1306"/>
      <point x="1273" y="1277" type="curve" smooth="yes"/>
      <point x="1258" y="1262"/>
      <point x="1250" y="1245"/>
      <point x="1247" y="1225" type="curve" smooth="yes"/>
      <point x="1244" y="1210"/>
      <point x="1243" y="1174"/>
      <point x="1243" y="1117" type="curve" smooth="yes"/>
      <point x="1243" y="240" type="line" smooth="yes"/>
      <point x="1243" y="160"/>
      <point x="1251" y="109"/>
      <point x="1267" y="87" type="curve" smooth="yes"/>
      <point x="1290" y="54"/>
      <point x="1331" y="37"/>
      <point x="1389" y="37" type="curve" smooth="yes"/>
    </contour>
  </outline>
</glyph>
<glyph name="N" format="1">
  <advance width="1480"/>
  <unicode hex="004E"/>
  <outline>
    <contour>
      <point x="1450" y="1355" type="line"/>
      <point x="1450" y="1320" type="line"/>
      <point x="1403" y="1320" type="line" smooth="yes"/>
      <point x="1344" y="1320"/>
      <point x="1303" y="1303"/>
      <point x="1281" y="1269" type="curve" smooth="yes"/>
      <point x="1266" y="1247"/>
      <point x="1259" y="1198"/>
      <point x="1259" y="1121" type="curve" smooth="yes"/>
      <point x="1259" y="-22" type="line"/>
      <point x="1223" y="-22" type="line"/>
      <point x="327" y="1070" type="line"/>
      <point x="327" y="236" type="line" smooth="yes"/>
      <point x="327" y="152"/>
      <point x="336" y="100"/>
      <point x="355" y="79" type="curve" smooth="yes"/>
      <point x="379" y="51"/>
      <point x="418" y="37"/>
      <point x="473" y="37" type="curve" smooth="yes"/>
      <point x="520" y="37" type="line"/>
      <point x="520" y="0" type="line"/>
      <point x="47" y="0" type="line"/>
      <point x="47" y="37" type="line"/>
      <point x="95" y="37" type="line" smooth="yes"/>
      <point x="156" y="37"/>
      <point x="196" y="55"/>
      <point x="217" y="91" type="curve"/>
      <point x="232" y="110"/>
      <point x="240" y="159"/>
      <point x="240" y="236" type="curve" smooth="yes"/>
      <point x="240" y="1178" type="line"/>
      <point x="176" y="1260" type="line"/>
      <point x="133" y="1300"/>
      <point x="79" y="1320"/>
      <point x="12" y="1320" type="curve"/>
      <point x="12" y="1355" type="line"/>
      <point x="343" y="1355" type="line"/>
      <point x="1170" y="339" type="line"/>
      <point x="1170" y="1121" type="line" smooth="yes"/>
      <point x="1170" y="1205"/>
      <point x="1161" y="1257"/>
      <point x="1143" y="1277" type="curve" smooth="yes"/>
      <point x="1116" y="1306"/>
      <point x="1077" y="1320"/>
      <point x="1024" y="1320" type="curve" smooth="yes"/>
      <point x="979" y="1320" type="line"/>
      <point x="979" y="1355" type="line"/>
    </contour>
  </outline>
</glyph>
<glyph name="O" format="1">
  <advance width="1480"/>
  <unicode hex="004F"/>
  <outline>
    <contour>
      <point x="1399" y="686" type="curve" smooth="yes"/>
      <point x="1399" y="481"/>
      <point x="1335" y="310"/>
      <point x="1208" y="173" type="curve" smooth="yes"/>
      <point x="1081" y="36"/>
      <point x="922" y="-32"/>
      <point x="733" y="-32" type="curve" smooth="yes"/>
      <point x="546" y="-32"/>
      <point x="389" y="34"/>
      <point x="264" y="165" type="curve" smooth="yes"/>
      <point x="135" y="300"/>
      <point x="71" y="472"/>
      <point x="71" y="682" type="curve" smooth="yes"/>
      <point x="71" y="884"/>
      <point x="136" y="1052"/>
      <point x="265" y="1186" type="curve" smooth="yes"/>
      <point x="395" y="1320"/>
      <point x="557" y="1387"/>
      <point x="751" y="1387" type="curve" smooth="yes"/>
      <point x="930" y="1387"/>
      <point x="1083" y="1321"/>
      <point x="1208" y="1189" type="curve" smooth="yes"/>
      <point x="1335" y="1054"/>
      <point x="1399" y="886"/>
    </contour>
    <contour>
      <point x="1172" y="660" type="curve" smooth="yes"/>
      <point x="1174" y="1095"/>
      <point x="1026" y="1314"/>
      <point x="729" y="1316" type="curve" smooth="yes"/>
      <point x="594" y="1317"/>
      <point x="489" y="1261"/>
      <point x="414" y="1149" type="curve" smooth="yes"/>
      <point x="339" y="1037"/>
      <point x="301" y="883"/>
      <point x="301" y="688" type="curve" smooth="yes"/>
      <point x="301" y="492"/>
      <point x="338" y="336"/>
      <point x="411" y="221" type="curve" smooth="yes"/>
      <point x="488" y="101"/>
      <point x="594" y="40"/>
      <point x="731" y="39" type="curve" smooth="yes"/>
      <point x="866" y="38"/>
      <point x="971" y="88"/>
      <point x="1048" y="189" type="curve" smooth="yes"/>
      <point x="1130" y="296"/>
      <point x="1171" y="453"/>
    </contour>
  </outline>
</glyph>
<glyph name="P" format="1">
  <advance width="1139"/>
  <unicode hex="0050"/>
  <outline>
    <contour>
      <point x="1068" y="981" type="curve" smooth="yes"/>
      <point x="1068" y="730"/>
      <point x="910" y="606"/>
      <point x="593" y="607" type="curve"/>
      <point x="570" y="606"/>
      <point x="512" y="610"/>
      <point x="420" y="617" type="curve"/>
      <point x="420" y="240" type="line" smooth="yes"/>
      <point x="420" y="153"/>
      <point x="430" y="101"/>
      <point x="449" y="83" type="curve"/>
      <point x="473" y="52"/>
      <point x="511" y="37"/>
      <point x="563" y="37" type="curve" smooth="yes"/>
      <point x="615" y="37" type="line"/>
      <point x="615" y="0" type="line"/>
      <point x="35" y="0" type="line"/>
      <point x="35" y="37" type="line"/>
      <point x="85" y="37" type="line" smooth="yes"/>
      <point x="144" y="37"/>
      <point x="184" y="56"/>
      <point x="207" y="93" type="curve" smooth="yes"/>
      <point x="220" y="114"/>
      <point x="227" y="163"/>
      <point x="227" y="240" type="curve" smooth="yes"/>
      <point x="227" y="1117" type="line" smooth="yes"/>
      <point x="227" y="1201"/>
      <point x="218" y="1254"/>
      <point x="201" y="1277" type="curve"/>
      <point x="174" y="1306"/>
      <point x="136" y="1320"/>
      <point x="85" y="1320" type="curve" smooth="yes"/>
      <point x="35" y="1320" type="line"/>
      <point x="35" y="1355" type="line"/>
      <point x="530" y="1355" type="line" smooth="yes"/>
      <point x="709" y="1355"/>
      <point x="837" y="1327"/>
      <point x="912" y="1271" type="curve" smooth="yes"/>
      <point x="1016" y="1193"/>
      <point x="1068" y="1096"/>
    </contour>
    <contour>
      <point x="839" y="961" type="curve" smooth="yes"/>
      <point x="840" y="1049"/>
      <point x="817" y="1122"/>
      <point x="768" y="1181" type="curve" smooth="yes"/>
      <point x="715" y="1245"/>
      <point x="643" y="1277"/>
      <point x="552" y="1277" type="curve" smooth="yes"/>
      <point x="523" y="1277"/>
      <point x="479" y="1270"/>
      <point x="420" y="1257" type="curve"/>
      <point x="420" y="684" type="line"/>
      <point x="475" y="676"/>
      <point x="529" y="672"/>
      <point x="583" y="672" type="curve" smooth="yes"/>
      <point x="654" y="672"/>
      <point x="714" y="699"/>
      <point x="763" y="752" type="curve" smooth="yes"/>
      <point x="813" y="806"/>
      <point x="838" y="876"/>
    </contour>
  </outline>
</glyph>
<glyph name="U" format="1">
  <advance width="1480"/>
  <unicode hex="0055"/>
  <outline>
    <contour>
      <point x="1458" y="1355" type="line"/>
      <point x="1458" y="1320" type="line"/>
      <point x="1407" y="1320" type="line" smooth="yes"/>
      <point x="1356" y="1320"/>
      <point x="1315" y="1297"/>
      <point x="1285" y="1251" type="curve"/>
      <point x="1270" y="1233"/>
      <point x="1263" y="1186"/>
      <point x="1263" y="1109" type="curve" smooth="yes"/>
      <point x="1263" y="558" type="line" smooth="yes"/>
      <point x="1263" y="347"/>
      <point x="1224" y="200"/>
      <point x="1145" y="118" type="curve" smooth="yes"/>
      <point x="1049" y="18"/>
      <point x="914" y="-32"/>
      <point x="739" y="-32" type="curve" smooth="yes"/>
      <point x="498" y="-32"/>
      <point x="340" y="44"/>
      <point x="264" y="196" type="curve" smooth="yes"/>
      <point x="226" y="273"/>
      <point x="207" y="403"/>
      <point x="207" y="585" type="curve" smooth="yes"/>
      <point x="207" y="1117" type="line" smooth="yes"/>
      <point x="207" y="1187"/>
      <point x="200" y="1235"/>
      <point x="185" y="1262" type="curve" smooth="yes"/>
      <point x="164" y="1301"/>
      <point x="123" y="1320"/>
      <point x="61" y="1320" type="curve" smooth="yes"/>
      <point x="30" y="1320" type="line"/>
      <point x="30" y="1355" type="line"/>
      <point x="577" y="1355" type="line"/>
      <point x="577" y="1320" type="line"/>
      <point x="526" y="1320" type="line" smooth="yes"/>
      <point x="482" y="1320"/>
      <point x="449" y="1302"/>
      <point x="426" y="1267" type="curve" smooth="yes"/>
      <point x="409" y="1240"/>
      <point x="400" y="1190"/>
      <point x="400" y="1117" type="curve" smooth="yes"/>
      <point x="400" y="524" type="line" smooth="yes"/>
      <point x="400" y="390"/>
      <point x="416" y="290"/>
      <point x="447" y="223" type="curve" smooth="yes"/>
      <point x="500" y="110"/>
      <point x="602" y="53"/>
      <point x="753" y="53" type="curve" smooth="yes"/>
      <point x="882" y="53"/>
      <point x="991" y="94"/>
      <point x="1078" y="175" type="curve" smooth="yes"/>
      <point x="1141" y="234"/>
      <point x="1172" y="365"/>
      <point x="1172" y="567" type="curve" smooth="yes"/>
      <point x="1172" y="1117" type="line" smooth="yes"/>
      <point x="1172" y="1203"/>
      <point x="1163" y="1256"/>
      <point x="1145" y="1277" type="curve" smooth="yes"/>
      <point x="1119" y="1306"/>
      <point x="1080" y="1320"/>
      <point x="1028" y="1320" type="curve" smooth="yes"/>
      <point x="977" y="1320" type="line"/>
      <point x="977" y="1355" type="line"/>
    </contour>
  </outline>
</glyph>
<glyph name="bracketright" format="1">
  <advance width="677"/>
  <unicode hex="005D"/>
  <outline>
    <contour>
      <point x="430" y="1533" type="line"/>
      <point x="430" y="-444" type="line"/>
      <point x="64" y="-444" type="line"/>
      <point x="64" y="-355" type="line"/>
      <point x="305" y="-355" type="line"/>
      <point x="305" y="1448" type="line"/>
      <point x="64" y="1448" type="line"/>
      <point x="64" y="1533" type="line"/>
    </contour>
  </outline>
</glyph>
<glyph name="grave" format="1">
  <advance width="768"/>
  <unicode hex="0060"/>
  <outline>
    <contour>
      <point x="183" y="1328" type="curve" smooth="yes"/>
      <point x="467" y="1042" type="line"/>
      <point x="384" y="1042" type="line"/>
      <point x="89" y="1229" type="line" smooth="yes"/>
      <point x="30" y="1267"/>
      <point x="0" y="1297"/>
      <point x="0" y="1318" type="curve" smooth="yes"/>
      <point x="0" y="1369"/>
      <point x="21" y="1395"/>
      <point x="63" y="1395" type="curve" smooth="yes"/>
      <point x="99" y="1395"/>
      <point x="139" y="1373"/>
    </contour>
  </outline>
</glyph>
<glyph name="a" format="1">
  <advance width="910"/>
  <unicode hex="0061"/>
  <outline>
    <contour>
      <point x="908" y="189" type="curve"/>
      <point x="908" y="132" type="line"/>
      <point x="834" y="32"/>
      <point x="761" y="-18"/>
      <point x="690" y="-18" type="curve" smooth="yes"/>
      <point x="619" y="-18"/>
      <point x="583" y="32"/>
      <point x="583" y="132" type="curve"/>
      <point x="498" y="66"/>
      <point x="442" y="25"/>
      <point x="413" y="10" type="curve" smooth="yes"/>
      <point x="378" y="-9"/>
      <point x="338" y="-18"/>
      <point x="292" y="-18" type="curve" smooth="yes"/>
      <point x="227" y="-18"/>
      <point x="174" y="3"/>
      <point x="133" y="46" type="curve" smooth="yes"/>
      <point x="93" y="89"/>
      <point x="73" y="146"/>
      <point x="73" y="217" type="curve" smooth="yes"/>
      <point x="73" y="292"/>
      <point x="104" y="355"/>
      <point x="165" y="407" type="curve" smooth="yes"/>
      <point x="240" y="470"/>
      <point x="379" y="537"/>
      <point x="583" y="607" type="curve"/>
      <point x="583" y="644" type="line" smooth="yes"/>
      <point x="583" y="816"/>
      <point x="531" y="883"/>
      <point x="412" y="883" type="curve" smooth="yes"/>
      <point x="331" y="883"/>
      <point x="278" y="835"/>
      <point x="274" y="770" type="curve"/>
      <point x="276" y="711" type="line" smooth="yes"/>
      <point x="278" y="648"/>
      <point x="250" y="617"/>
      <point x="193" y="617" type="curve" smooth="yes"/>
      <point x="136" y="617"/>
      <point x="108" y="649"/>
      <point x="108" y="713" type="curve" smooth="yes"/>
      <point x="108" y="782"/>
      <point x="142" y="838"/>
      <point x="210" y="881" type="curve" smooth="yes"/>
      <point x="273" y="922"/>
      <point x="351" y="942"/>
      <point x="443" y="942" type="curve" smooth="yes"/>
      <point x="567" y="942"/>
      <point x="652" y="914"/>
      <point x="697" y="858" type="curve" smooth="yes"/>
      <point x="733" y="813"/>
      <point x="751" y="737"/>
      <point x="751" y="630" type="curve" smooth="yes"/>
      <point x="751" y="317" type="line" smooth="yes"/>
      <point x="751" y="238"/>
      <point x="753" y="185"/>
      <point x="757" y="158" type="curve" smooth="yes"/>
      <point x="762" y="125"/>
      <point x="776" y="108"/>
      <point x="800" y="108" type="curve" smooth="yes"/>
      <point x="818" y="108"/>
      <point x="854" y="135"/>
    </contour>
    <contour>
      <point x="583" y="197" type="curve"/>
      <point x="583" y="548" type="line"/>
      <point x="442" y="493"/>
      <point x="346" y="441"/>
      <point x="297" y="394" type="curve" smooth="yes"/>
      <point x="260" y="359"/>
      <point x="242" y="316"/>
      <point x="242" y="264" type="curve" smooth="yes"/>
      <point x="242" y="217"/>
      <point x="256" y="178"/>
      <point x="283" y="146" type="curve" smooth="yes"/>
      <point x="310" y="114"/>
      <point x="343" y="98"/>
      <point x="382" y="97" type="curve" smooth="yes"/>
      <point x="431" y="95"/>
      <point x="498" y="128"/>
    </contour>
  </outline>
</glyph>
<glyph name="f" format="1">
  <advance width="682"/>
  <unicode hex="0066"/>
  <outline>
    <contour>
      <point x="891" y="1251" type="curve" smooth="yes"/>
      <point x="891" y="1232"/>
      <point x="883" y="1214"/>
      <point x="866" y="1196" type="curve" smooth="yes"/>
      <point x="850" y="1178"/>
      <point x="831" y="1169"/>
      <point x="810" y="1168" type="curve"/>
      <point x="779" y="1168"/>
      <point x="741" y="1198"/>
      <point x="698" y="1258" type="curve" smooth="yes"/>
      <point x="655" y="1318"/>
      <point x="609" y="1348"/>
      <point x="560" y="1348" type="curve" smooth="yes"/>
      <point x="499" y="1348"/>
      <point x="460" y="1319"/>
      <point x="443" y="1261" type="curve" smooth="yes"/>
      <point x="429" y="1216"/>
      <point x="422" y="1123"/>
      <point x="422" y="981" type="curve" smooth="yes"/>
      <point x="422" y="916" type="line"/>
      <point x="658" y="916" type="line"/>
      <point x="658" y="843" type="line"/>
      <point x="422" y="843" type="line"/>
      <point x="422" y="242" type="line" smooth="yes"/>
      <point x="422" y="154"/>
      <point x="432" y="100"/>
      <point x="451" y="81" type="curve"/>
      <point x="472" y="52"/>
      <point x="505" y="37"/>
      <point x="550" y="37" type="curve" smooth="yes"/>
      <point x="632" y="37" type="line"/>
      <point x="632" y="0" type="line"/>
      <point x="81" y="0" type="line"/>
      <point x="81" y="37" type="line"/>
      <point x="122" y="37" type="line" smooth="yes"/>
      <point x="159" y="37"/>
      <point x="189" y="48"/>
      <point x="213" y="69" type="curve" smooth="yes"/>
      <point x="240" y="93"/>
      <point x="254" y="151"/>
      <point x="254" y="242" type="curve" smooth="yes"/>
      <point x="254" y="843" type="line"/>
      <point x="75" y="843" type="line"/>
      <point x="75" y="916" type="line"/>
      <point x="254" y="916" type="line"/>
      <point x="254" y="977" type="line" smooth="yes"/>
      <point x="254" y="1153"/>
      <point x="310" y="1279"/>
      <point x="423" y="1355" type="curve" smooth="yes"/>
      <point x="489" y="1400"/>
      <point x="561" y="1422"/>
      <point x="638" y="1422" type="curve" smooth="yes"/>
      <point x="698" y="1422"/>
      <point x="755" y="1405"/>
      <point x="808" y="1371" type="curve" smooth="yes"/>
      <point x="863" y="1335"/>
      <point x="891" y="1295"/>
    </contour>
  </outline>
</glyph>
<glyph name="h" format="1">
  <advance width="1024"/>
  <unicode hex="0068"/>
  <outline>
    <contour>
      <point x="1015" y="37" type="curve"/>
      <point x="1015" y="0" type="line"/>
      <point x="562" y="0" type="line"/>
      <point x="562" y="37" type="line"/>
      <point x="621" y="37"/>
      <point x="660" y="47"/>
      <point x="679" y="66" type="curve" smooth="yes"/>
      <point x="699" y="85"/>
      <point x="709" y="126"/>
      <point x="709" y="187" type="curve" smooth="yes"/>
      <point x="709" y="530" type="line" smooth="yes"/>
      <point x="709" y="625"/>
      <point x="704" y="688"/>
      <point x="695" y="720" type="curve" smooth="yes"/>
      <point x="676" y="788"/>
      <point x="631" y="822"/>
      <point x="562" y="822" type="curve" smooth="yes"/>
      <point x="487" y="822"/>
      <point x="411" y="778"/>
      <point x="335" y="690" type="curve"/>
      <point x="335" y="187" type="line" smooth="yes"/>
      <point x="335" y="125"/>
      <point x="342" y="85"/>
      <point x="357" y="68" type="curve" smooth="yes"/>
      <point x="375" y="47"/>
      <point x="416" y="37"/>
      <point x="481" y="37" type="curve"/>
      <point x="481" y="0" type="line"/>
      <point x="28" y="0" type="line"/>
      <point x="28" y="37" type="line"/>
      <point x="87" y="37"/>
      <point x="125" y="49"/>
      <point x="144" y="72" type="curve"/>
      <point x="159" y="92"/>
      <point x="167" y="130"/>
      <point x="167" y="187" type="curve" smooth="yes"/>
      <point x="167" y="1155" type="line" smooth="yes"/>
      <point x="167" y="1246"/>
      <point x="145" y="1292"/>
      <point x="100" y="1292" type="curve" smooth="yes"/>
      <point x="77" y="1292"/>
      <point x="53" y="1287"/>
      <point x="28" y="1277" type="curve"/>
      <point x="12" y="1312" type="line"/>
      <point x="288" y="1422" type="line"/>
      <point x="335" y="1422" type="line"/>
      <point x="335" y="753" type="line"/>
      <point x="419" y="879"/>
      <point x="520" y="942"/>
      <point x="638" y="942" type="curve" smooth="yes"/>
      <point x="741" y="942"/>
      <point x="810" y="896"/>
      <point x="845" y="803" type="curve" smooth="yes"/>
      <point x="866" y="747"/>
      <point x="877" y="656"/>
      <point x="877" y="530" type="curve" smooth="yes"/>
      <point x="877" y="187" type="line" smooth="yes"/>
      <point x="877" y="128"/>
      <point x="884" y="90"/>
      <point x="898" y="72" type="curve" smooth="yes"/>
      <point x="915" y="49"/>
      <point x="954" y="37"/>
    </contour>
  </outline>
</glyph>
<glyph name="m" format="1">
  <advance width="1594"/>
  <unicode hex="006D"/>
  <outline>
    <contour>
      <point x="1586" y="37" type="curve"/>
      <point x="1586" y="0" type="line"/>
      <point x="1133" y="0" type="line"/>
      <point x="1133" y="37" type="line"/>
      <point x="1200" y="37"/>
      <point x="1243" y="50"/>
      <point x="1261" y="76" type="curve" smooth="yes"/>
      <point x="1274" y="95"/>
      <point x="1281" y="138"/>
      <point x="1281" y="207" type="curve" smooth="yes"/>
      <point x="1281" y="603" type="line" smooth="yes"/>
      <point x="1281" y="750"/>
      <point x="1230" y="824"/>
      <point x="1129" y="824" type="curve" smooth="yes"/>
      <point x="1054" y="824"/>
      <point x="975" y="782"/>
      <point x="892" y="699" type="curve"/>
      <point x="892" y="207" type="line" smooth="yes"/>
      <point x="892" y="137"/>
      <point x="899" y="92"/>
      <point x="914" y="73" type="curve" smooth="yes"/>
      <point x="932" y="49"/>
      <point x="974" y="37"/>
      <point x="1040" y="37" type="curve"/>
      <point x="1040" y="0" type="line"/>
      <point x="575" y="0" type="line"/>
      <point x="575" y="37" type="line"/>
      <point x="646" y="37"/>
      <point x="691" y="51"/>
      <point x="709" y="79" type="curve" smooth="yes"/>
      <point x="720" y="96"/>
      <point x="725" y="139"/>
      <point x="725" y="207" type="curve" smooth="yes"/>
      <point x="725" y="603" type="line" smooth="yes"/>
      <point x="725" y="752"/>
      <point x="673" y="826"/>
      <point x="569" y="826" type="curve" smooth="yes"/>
      <point x="492" y="826"/>
      <point x="414" y="784"/>
      <point x="335" y="699" type="curve"/>
      <point x="335" y="207" type="line" smooth="yes"/>
      <point x="335" y="136"/>
      <point x="343" y="90"/>
      <point x="360" y="70" type="curve" smooth="yes"/>
      <point x="378" y="48"/>
      <point x="419" y="37"/>
      <point x="483" y="37" type="curve"/>
      <point x="483" y="0" type="line"/>
      <point x="30" y="0" type="line"/>
      <point x="30" y="37" type="line"/>
      <point x="93" y="37"/>
      <point x="133" y="51"/>
      <point x="150" y="79" type="curve" smooth="yes"/>
      <point x="161" y="98"/>
      <point x="167" y="141"/>
      <point x="167" y="207" type="curve" smooth="yes"/>
      <point x="167" y="558" type="line" smooth="yes"/>
      <point x="167" y="662"/>
      <point x="165" y="725"/>
      <point x="162" y="746" type="curve" smooth="yes"/>
      <point x="154" y="789"/>
      <point x="133" y="811"/>
      <point x="99" y="811" type="curve" smooth="yes"/>
      <point x="81" y="811"/>
      <point x="58" y="806"/>
      <point x="30" y="796" type="curve"/>
      <point x="14" y="831" type="line"/>
      <point x="292" y="942" type="line"/>
      <point x="335" y="942" type="line"/>
      <point x="335" y="749" type="line"/>
      <point x="404" y="825"/>
      <point x="464" y="877"/>
      <point x="515" y="906" type="curve" smooth="yes"/>
      <point x="557" y="930"/>
      <point x="603" y="942"/>
      <point x="652" y="942" type="curve" smooth="yes"/>
      <point x="779" y="942"/>
      <point x="856" y="878"/>
      <point x="885" y="749" type="curve"/>
      <point x="950" y="824"/>
      <point x="1007" y="875"/>
      <point x="1058" y="904" type="curve" smooth="yes"/>
      <point x="1103" y="929"/>
      <point x="1152" y="942"/>
      <point x="1206" y="942" type="curve" smooth="yes"/>
      <point x="1367" y="942"/>
      <point x="1448" y="829"/>
      <point x="1448" y="603" type="curve" smooth="yes"/>
      <point x="1448" y="207" type="line" smooth="yes"/>
      <point x="1448" y="138"/>
      <point x="1457" y="92"/>
      <point x="1475" y="70" type="curve" smooth="yes"/>
      <point x="1494" y="48"/>
      <point x="1531" y="37"/>
    </contour>
  </outline>
</glyph>
<glyph name="s" format="1">
  <advance width="798"/>
  <unicode hex="0073"/>
  <outline>
    <contour>
      <point x="725" y="231" type="curve" smooth="yes"/>
      <point x="725" y="162"/>
      <point x="694" y="101"/>
      <point x="633" y="48" type="curve" smooth="yes"/>
      <point x="572" y="-4"/>
      <point x="501" y="-30"/>
      <point x="420" y="-30" type="curve" smooth="yes"/>
      <point x="382" y="-30"/>
      <point x="336" y="-21"/>
      <point x="282" y="-2" type="curve" smooth="yes"/>
      <point x="222" y="19"/>
      <point x="186" y="30"/>
      <point x="173" y="32" type="curve"/>
      <point x="163" y="32"/>
      <point x="151" y="17"/>
      <point x="138" y="-14" type="curve"/>
      <point x="104" y="-14" type="line"/>
      <point x="104" y="313" type="line"/>
      <point x="138" y="313" type="line"/>
      <point x="155" y="224"/>
      <point x="190" y="154"/>
      <point x="243" y="103" type="curve" smooth="yes"/>
      <point x="293" y="56"/>
      <point x="352" y="32"/>
      <point x="420" y="32" type="curve" smooth="yes"/>
      <point x="467" y="32"/>
      <point x="506" y="45"/>
      <point x="535" y="72" type="curve" smooth="yes"/>
      <point x="562" y="97"/>
      <point x="576" y="129"/>
      <point x="577" y="167" type="curve" smooth="yes"/>
      <point x="578" y="214"/>
      <point x="565" y="254"/>
      <point x="536" y="285" type="curve"/>
      <point x="505" y="320"/>
      <point x="441" y="362"/>
      <point x="346" y="411" type="curve" smooth="yes"/>
      <point x="251" y="460"/>
      <point x="185" y="507"/>
      <point x="149" y="550" type="curve" smooth="yes"/>
      <point x="116" y="590"/>
      <point x="100" y="639"/>
      <point x="100" y="697" type="curve" smooth="yes"/>
      <point x="100" y="768"/>
      <point x="126" y="826"/>
      <point x="178" y="871" type="curve" smooth="yes"/>
      <point x="232" y="918"/>
      <point x="305" y="942"/>
      <point x="398" y="942" type="curve" smooth="yes"/>
      <point x="430" y="942"/>
      <point x="470" y="936"/>
      <point x="517" y="924" type="curve" smooth="yes"/>
      <point x="564" y="912"/>
      <point x="591" y="906"/>
      <point x="597" y="906" type="curve" smooth="yes"/>
      <point x="616" y="906"/>
      <point x="631" y="918"/>
      <point x="642" y="942" type="curve"/>
      <point x="676" y="942" type="line"/>
      <point x="676" y="630" type="line"/>
      <point x="642" y="630" type="line"/>
      <point x="601" y="800"/>
      <point x="519" y="885"/>
      <point x="394" y="885" type="curve" smooth="yes"/>
      <point x="278" y="885"/>
      <point x="219" y="845"/>
      <point x="217" y="764" type="curve"/>
      <point x="214" y="685"/>
      <point x="264" y="621"/>
      <point x="366" y="573" type="curve" smooth="yes"/>
      <point x="514" y="504" type="line" smooth="yes"/>
      <point x="655" y="439"/>
      <point x="725" y="348"/>
    </contour>
  </outline>
</glyph>
<glyph name="uni198F" format="1">
  <advance width="1195"/>
  <unicode hex="198F"/>
  <outline>
    <contour>
      <point x="487" y="482" type="curve" smooth="yes"/>
      <point x="497" y="482"/>
      <point x="507" y="474"/>
      <point x="507" y="465" type="curve" smooth="yes"/>
      <point x="507" y="415" type="line" smooth="yes"/>
      <point x="507" y="404"/>
      <point x="497" y="397"/>
      <point x="487" y="397" type="curve" smooth="yes"/>
      <point x="331" y="397"/>
      <point x="255" y="327"/>
      <point x="255" y="240" type="curve" smooth="yes"/>
      <point x="255" y="166"/>
      <point x="331" y="105"/>
      <point x="410" y="105" type="curve" smooth="yes"/>
      <point x="480" y="105"/>
      <point x="528" y="121"/>
      <point x="545" y="130" type="curve" smooth="yes"/>
      <point x="555" y="135"/>
      <point x="567" y="131"/>
      <point x="572" y="123" type="curve" smooth="yes"/>
      <point x="618" y="49" type="line" smooth="yes"/>
      <point x="623" y="40"/>
      <point x="618" y="31"/>
      <point x="610" y="25" type="curve" smooth="yes"/>
      <point x="579" y="2"/>
      <point x="501" y="-20"/>
      <point x="410" y="-20" type="curve" smooth="yes"/>
      <point x="263" y="-20"/>
      <point x="130" y="105"/>
      <point x="130" y="240" type="curve" smooth="yes"/>
      <point x="130" y="421"/>
      <point x="326" y="482"/>
    </contour>
    <contour>
      <point x="580" y="-740" type="curve" smooth="yes"/>
      <point x="363" y="-740"/>
      <point x="224" y="-624"/>
      <point x="174" y="-522" type="curve" smooth="yes"/>
      <point x="169" y="-513"/>
      <point x="178" y="-500"/>
      <point x="188" y="-496" type="curve" smooth="yes"/>
      <point x="220" y="-485" type="line" smooth="yes"/>
      <point x="228" y="-482"/>
      <point x="239" y="-491"/>
      <point x="245" y="-500" type="curve" smooth="yes"/>
      <point x="290" y="-570"/>
      <point x="404" y="-635"/>
      <point x="580" y="-635" type="curve" smooth="yes"/>
      <point x="856" y="-635"/>
      <point x="940" y="-334"/>
      <point x="940" y="120" type="curve" smooth="yes"/>
      <point x="940" y="617"/>
      <point x="820" y="845"/>
      <point x="545" y="845" type="curve" smooth="yes"/>
      <point x="390" y="845"/>
      <point x="255" y="772"/>
      <point x="255" y="640" type="curve" smooth="yes"/>
      <point x="255" y="566"/>
      <point x="341" y="482"/>
      <point x="487" y="482" type="curve" smooth="yes"/>
      <point x="497" y="482"/>
      <point x="507" y="474"/>
      <point x="507" y="465" type="curve" smooth="yes"/>
      <point x="507" y="415" type="line" smooth="yes"/>
      <point x="507" y="404"/>
      <point x="497" y="397"/>
      <point x="487" y="397" type="curve" smooth="yes"/>
      <point x="343" y="397"/>
      <point x="130" y="474"/>
      <point x="130" y="650" type="curve" smooth="yes"/>
      <point x="130" y="848"/>
      <point x="320" y="970"/>
      <point x="545" y="970" type="curve" smooth="yes"/>
      <point x="905" y="970"/>
      <point x="1065" y="676"/>
      <point x="1065" y="120" type="curve" smooth="yes"/>
      <point x="1065" y="-435"/>
      <point x="923" y="-740"/>
    </contour>
  </outline>
</glyph>
<glyph name="uni19B2" format="1">
  <advance width="1225"/>
  <unicode hex="19B2"/>
  <outline>
    <contour>
      <point x="615" y="1570" type="curve" smooth="yes"/>
      <point x="932" y="1570"/>
      <point x="1125" y="1314"/>
      <point x="1125" y="770" type="curve" smooth="yes"/>
      <point x="1125" y="234"/>
      <point x="942" y="-20"/>
      <point x="615" y="-20" type="curve" smooth="yes"/>
      <point x="278" y="-20"/>
      <point x="100" y="238"/>
      <point x="100" y="770" type="curve" smooth="yes"/>
      <point x="100" y="1312"/>
      <point x="288" y="1570"/>
    </contour>
    <contour>
      <point x="615" y="1340" type="curve" smooth="yes"/>
      <point x="459" y="1340"/>
      <point x="350" y="1201"/>
      <point x="350" y="770" type="curve" smooth="yes"/>
      <point x="350" y="320"/>
      <point x="469" y="210"/>
      <point x="615" y="210" type="curve" smooth="yes"/>
      <point x="762" y="210"/>
      <point x="875" y="330"/>
      <point x="875" y="770" type="curve" smooth="yes"/>
      <point x="875" y="1201"/>
      <point x="752" y="1340"/>
    </contour>
    <contour>
      <point x="975" y="600" type="curve"/>
      <point x="995" y="805" type="line"/>
      <point x="931" y="908"/>
      <point x="769" y="970"/>
      <point x="615" y="970" type="curve" smooth="yes"/>
      <point x="447" y="970"/>
      <point x="280" y="906"/>
      <point x="220" y="795" type="curve"/>
      <point x="245" y="600" type="line"/>
      <point x="291" y="737"/>
      <point x="459" y="810"/>
      <point x="615" y="810" type="curve" smooth="yes"/>
      <point x="762" y="810"/>
      <point x="934" y="745"/>
    </contour>
  </outline>
</glyph>
<glyph name="uni19B8" format="1">
  <advance width="1213"/>
  <unicode hex="19B8"/>
  <outline>
    <contour>
      <point x="611" y="740" type="curve" smooth="yes"/>
      <point x="536" y="740"/>
      <point x="501" y="669"/>
      <point x="501" y="605" type="curve" smooth="yes"/>
      <point x="501" y="372"/>
      <point x="724" y="198"/>
      <point x="916" y="200" type="curve" smooth="yes"/>
      <point x="1000" y="201"/>
      <point x="1059" y="232"/>
      <point x="1091" y="325" type="curve" smooth="yes"/>
      <point x="1095" y="336"/>
      <point x="1110" y="338"/>
      <point x="1117" y="334" type="curve"/>
      <point x="1225" y="224" type="line"/>
      <point x="1234" y="218"/>
      <point x="1233" y="209"/>
      <point x="1231" y="200" type="curve" smooth="yes"/>
      <point x="1207" y="75"/>
      <point x="1051" y="-19"/>
      <point x="916" y="-20" type="curve" smooth="yes"/>
      <point x="587" y="-22"/>
      <point x="251" y="342"/>
      <point x="251" y="600" type="curve" smooth="yes"/>
      <point x="251" y="813"/>
      <point x="370" y="970"/>
      <point x="611" y="970" type="curve" smooth="yes"/>
      <point x="842" y="970"/>
      <point x="971" y="813"/>
      <point x="971" y="600" type="curve" smooth="yes"/>
      <point x="971" y="342"/>
      <point x="635" y="-22"/>
      <point x="306" y="-20" type="curve" smooth="yes"/>
      <point x="171" y="-19"/>
      <point x="15" y="75"/>
      <point x="-9" y="200" type="curve" smooth="yes"/>
      <point x="-10" y="209"/>
      <point x="-12" y="218"/>
      <point x="-3" y="224" type="curve"/>
      <point x="105" y="344" type="line"/>
      <point x="112" y="348"/>
      <point x="127" y="346"/>
      <point x="131" y="335" type="curve" smooth="yes"/>
      <point x="163" y="242"/>
      <point x="222" y="201"/>
      <point x="306" y="200" type="curve" smooth="yes"/>
      <point x="498" y="198"/>
      <point x="721" y="372"/>
      <point x="721" y="605" type="curve" smooth="yes"/>
      <point x="721" y="669"/>
      <point x="686" y="740"/>
    </contour>
  </outline>
</glyph>
<glyph name="uni19C6" format="1">
  <advance width="1167"/>
  <unicode hex="19C6"/>
  <outline>
    <contour>
      <point x="210" y="673" type="curve" smooth="yes"/>
      <point x="202" y="664"/>
      <point x="190" y="659"/>
      <point x="180" y="667" type="curve" smooth="yes"/>
      <point x="111" y="721" type="line" smooth="yes"/>
      <point x="101" y="729"/>
      <point x="97" y="743"/>
      <point x="105" y="753" type="curve" smooth="yes"/>
      <point x="187" y="847"/>
      <point x="372" y="970"/>
      <point x="578" y="970" type="curve" smooth="yes"/>
      <point x="875" y="970"/>
      <point x="1023" y="762"/>
      <point x="1023" y="480" type="curve" smooth="yes"/>
      <point x="1023" y="301"/>
      <point x="939" y="114"/>
      <point x="752" y="28" type="curve"/>
      <point x="919" y="-28"/>
      <point x="1037" y="-146"/>
      <point x="1037" y="-310" type="curve" smooth="yes"/>
      <point x="1037" y="-593"/>
      <point x="824" y="-740"/>
      <point x="522" y="-740" type="curve" smooth="yes"/>
      <point x="352" y="-740"/>
      <point x="95" y="-678"/>
      <point x="95" y="-477" type="curve" smooth="yes"/>
      <point x="95" y="-348"/>
      <point x="187" y="-252"/>
      <point x="325" y="-252" type="curve" smooth="yes"/>
      <point x="465" y="-252"/>
      <point x="550" y="-348"/>
      <point x="550" y="-467" type="curve" smooth="yes"/>
      <point x="550" y="-521"/>
      <point x="516" y="-574"/>
      <point x="473" y="-617" type="curve"/>
      <point x="487" y="-622"/>
      <point x="510" y="-625"/>
      <point x="527" y="-625" type="curve" smooth="yes"/>
      <point x="734" y="-625"/>
      <point x="912" y="-530"/>
      <point x="912" y="-310" type="curve" smooth="yes"/>
      <point x="912" y="-163"/>
      <point x="732" y="-20"/>
      <point x="518" y="-20" type="curve" smooth="yes"/>
      <point x="515" y="-20" type="line" smooth="yes"/>
      <point x="505" y="-20"/>
      <point x="495" y="-12"/>
      <point x="495" y="-3" type="curve" smooth="yes"/>
      <point x="495" y="47" type="line" smooth="yes"/>
      <point x="495" y="58"/>
      <point x="505" y="65"/>
      <point x="515" y="65" type="curve" smooth="yes"/>
      <point x="755" y="65"/>
      <point x="898" y="300"/>
      <point x="898" y="480" type="curve" smooth="yes"/>
      <point x="898" y="700"/>
      <point x="774" y="845"/>
      <point x="578" y="845" type="curve" smooth="yes"/>
      <point x="445" y="845"/>
      <point x="293" y="760"/>
    </contour>
    <contour>
      <point x="215" y="-477" type="curve" smooth="yes"/>
      <point x="215" y="-543"/>
      <point x="260" y="-587"/>
      <point x="325" y="-587" type="curve" smooth="yes"/>
      <point x="392" y="-587"/>
      <point x="430" y="-542"/>
      <point x="430" y="-477" type="curve" smooth="yes"/>
      <point x="430" y="-411"/>
      <point x="390" y="-372"/>
      <point x="325" y="-372" type="curve" smooth="yes"/>
      <point x="260" y="-372"/>
      <point x="215" y="-411"/>
    </contour>
  </outline>
</glyph>
<glyph name="uni19D0" format="1">
  <advance width="1265"/>
  <unicode hex="19D0"/>
  <outline>
    <contour>
      <point x="635" y="970" type="curve" smooth="yes"/>
      <point x="962" y="970"/>
      <point x="1155" y="773"/>
      <point x="1155" y="470" type="curve" smooth="yes"/>
      <point x="1155" y="187"/>
      <point x="972" y="-20"/>
      <point x="635" y="-20" type="curve" smooth="yes"/>
      <point x="288" y="-20"/>
      <point x="110" y="188"/>
      <point x="110" y="470" type="curve" smooth="yes"/>
      <point x="110" y="762"/>
      <point x="298" y="970"/>
    </contour>
    <contour>
      <point x="635" y="845" type="curve" smooth="yes"/>
      <point x="379" y="845"/>
      <point x="235" y="691"/>
      <point x="235" y="470" type="curve" smooth="yes"/>
      <point x="235" y="250"/>
      <point x="389" y="105"/>
      <point x="635" y="105" type="curve" smooth="yes"/>
      <point x="882" y="105"/>
      <point x="1030" y="260"/>
      <point x="1030" y="470" type="curve" smooth="yes"/>
      <point x="1030" y="691"/>
      <point x="872" y="845"/>
    </contour>
  </outline>
</glyph>
<glyph name="uni19D5" format="1">
  <advance width="1276"/>
  <unicode hex="19D5"/>
  <outline>
    <contour>
      <point x="546" y="-645" type="curve" smooth="yes"/>
      <point x="950" y="-645"/>
      <point x="1011" y="-286"/>
      <point x="1011" y="211" type="curve" smooth="yes"/>
      <point x="1011" y="681"/>
      <point x="969" y="845"/>
      <point x="811" y="845" type="curve" smooth="yes"/>
      <point x="737" y="845"/>
      <point x="656" y="774"/>
      <point x="656" y="660" type="curve" smooth="yes"/>
      <point x="656" y="638"/>
      <point x="638" y="615"/>
      <point x="616" y="615" type="curve" smooth="yes"/>
      <point x="594" y="615"/>
      <point x="582" y="637"/>
      <point x="582" y="660" type="curve" smooth="yes"/>
      <point x="582" y="672"/>
      <point x="582" y="706"/>
      <point x="582" y="725" type="curve" smooth="yes"/>
      <point x="582" y="863"/>
      <point x="699" y="970"/>
      <point x="821" y="970" type="curve" smooth="yes"/>
      <point x="1115" y="970"/>
      <point x="1136" y="565"/>
      <point x="1136" y="211" type="curve" smooth="yes"/>
      <point x="1136" y="-349"/>
      <point x="1042" y="-740"/>
      <point x="546" y="-740" type="curve" smooth="yes"/>
      <point x="280" y="-740"/>
      <point x="121" y="-574"/>
      <point x="81" y="-452" type="curve" smooth="yes"/>
      <point x="78" y="-442"/>
      <point x="85" y="-430"/>
      <point x="95" y="-426" type="curve" smooth="yes"/>
      <point x="127" y="-415" type="line" smooth="yes"/>
      <point x="135" y="-412"/>
      <point x="148" y="-420"/>
      <point x="152" y="-430" type="curve" smooth="yes"/>
      <point x="197" y="-530"/>
      <point x="310" y="-645"/>
    </contour>
    <contour>
      <point x="411" y="845" type="curve" smooth="yes"/>
      <point x="337" y="845"/>
      <point x="276" y="789"/>
      <point x="276" y="700" type="curve" smooth="yes"/>
      <point x="276" y="622"/>
      <point x="320" y="579"/>
      <point x="356" y="545" type="curve" smooth="yes"/>
      <point x="364" y="538"/>
      <point x="357" y="522"/>
      <point x="349" y="518" type="curve"/>
      <point x="280" y="462" type="line"/>
      <point x="271" y="457"/>
      <point x="264" y="463"/>
      <point x="256" y="470" type="curve" smooth="yes"/>
      <point x="203" y="516"/>
      <point x="151" y="589"/>
      <point x="151" y="710" type="curve" smooth="yes"/>
      <point x="151" y="857"/>
      <point x="276" y="970"/>
      <point x="411" y="970" type="curve" smooth="yes"/>
      <point x="592" y="970"/>
      <point x="658" y="774"/>
      <point x="658" y="613" type="curve" smooth="yes"/>
      <point x="658" y="603"/>
      <point x="650" y="593"/>
      <point x="641" y="593" type="curve" smooth="yes"/>
      <point x="591" y="593" type="line" smooth="yes"/>
      <point x="580" y="593"/>
      <point x="573" y="603"/>
      <point x="573" y="613" type="curve" smooth="yes"/>
      <point x="573" y="769"/>
      <point x="498" y="845"/>
    </contour>
  </outline>
</glyph>
<glyph name="uni19DA" format="1">
  <advance width="1619"/>
  <unicode hex="19DA"/>
  <outline>
    <contour>
      <point x="462" y="-20" type="curve" smooth="yes"/>
      <point x="250" y="-20"/>
      <point x="123" y="168"/>
      <point x="121" y="433" type="curve" smooth="yes"/>
      <point x="119" y="699"/>
      <point x="272" y="968"/>
      <point x="617" y="968" type="curve" smooth="yes"/>
      <point x="888" y="968"/>
      <point x="1052" y="792"/>
      <point x="1124" y="595" type="curve" smooth="yes"/>
      <point x="1127" y="587"/>
      <point x="1137" y="583"/>
      <point x="1143" y="590" type="curve" smooth="yes"/>
      <point x="1400" y="874"/>
      <point x="1524" y="1244"/>
      <point x="1534" y="1545" type="curve" smooth="yes"/>
      <point x="1534" y="1556"/>
      <point x="1542" y="1570"/>
      <point x="1554" y="1570" type="curve" smooth="yes"/>
      <point x="1649" y="1570" type="line" smooth="yes"/>
      <point x="1662" y="1570"/>
      <point x="1669" y="1553"/>
      <point x="1669" y="1545" type="curve" smooth="yes"/>
      <point x="1647" y="1169"/>
      <point x="1472" y="811"/>
      <point x="1122" y="432" type="curve" smooth="yes"/>
      <point x="1099" y="408"/>
      <point x="1056" y="413"/>
      <point x="1044" y="451" type="curve" smooth="yes"/>
      <point x="972" y="680"/>
      <point x="847" y="843"/>
      <point x="616" y="843" type="curve" smooth="yes"/>
      <point x="366" y="843"/>
      <point x="246" y="656"/>
      <point x="246" y="433" type="curve" smooth="yes"/>
      <point x="246" y="234"/>
      <point x="324" y="90"/>
      <point x="462" y="90" type="curve" smooth="yes"/>
      <point x="515" y="90"/>
      <point x="547" y="128"/>
      <point x="547" y="160" type="curve" smooth="yes"/>
      <point x="547" y="196"/>
      <point x="511" y="231"/>
      <point x="469" y="240" type="curve" smooth="yes"/>
      <point x="460" y="242"/>
      <point x="452" y="252"/>
      <point x="455" y="260" type="curve" smooth="yes"/>
      <point x="477" y="313" type="line" smooth="yes"/>
      <point x="481" y="323"/>
      <point x="490" y="327"/>
      <point x="499" y="325" type="curve" smooth="yes"/>
      <point x="579" y="310"/>
      <point x="649" y="242"/>
      <point x="647" y="160" type="curve" smooth="yes"/>
      <point x="644" y="48"/>
      <point x="555" y="-20"/>
    </contour>
  </outline>
</glyph>
<glyph name="uni3002" format="1">
  <advance width="1100"/>
  <unicode hex="3002"/>
  <outline>
    <contour>
      <point x="470" y="165" type="curve" smooth="yes"/>
      <point x="470" y="114"/>
      <point x="452" y="70"/>
      <point x="416" y="34" type="curve" smooth="yes"/>
      <point x="380" y="-2"/>
      <point x="336" y="-20"/>
      <point x="285" y="-20" type="curve" smooth="yes"/>
      <point x="234" y="-20"/>
      <point x="190" y="-2"/>
      <point x="154" y="34" type="curve" smooth="yes"/>
      <point x="118" y="70"/>
      <point x="100" y="114"/>
      <point x="100" y="165" type="curve" smooth="yes"/>
      <point x="100" y="216"/>
      <point x="118" y="260"/>
      <point x="154" y="296" type="curve" smooth="yes"/>
      <point x="190" y="332"/>
      <point x="234" y="350"/>
      <point x="285" y="350" type="curve" smooth="yes"/>
      <point x="336" y="350"/>
      <point x="380" y="332"/>
      <point x="416" y="296" type="curve" smooth="yes"/>
      <point x="452" y="260"/>
      <point x="470" y="216"/>
    </contour>
    <contour>
      <point x="419" y="165" type="curve" smooth="yes"/>
      <point x="419" y="202"/>
      <point x="406" y="234"/>
      <point x="380" y="260" type="curve" smooth="yes"/>
      <point x="354" y="286"/>
      <point x="322" y="299"/>
      <point x="285" y="299" type="curve" smooth="yes"/>
      <point x="248" y="299"/>
      <point x="216" y="286"/>
      <point x="190" y="260" type="curve" smooth="yes"/>
      <point x="164" y="234"/>
      <point x="151" y="202"/>
      <point x="151" y="165" type="curve" smooth="yes"/>
      <point x="151" y="128"/>
      <point x="164" y="96"/>
      <point x="190" y="70" type="curve" smooth="yes"/>
      <point x="216" y="44"/>
      <point x="248" y="31"/>
      <point x="285" y="31" type="curve" smooth="yes"/>
      <point x="322" y="31"/>
      <point x="354" y="44"/>
      <point x="380" y="70" type="curve" smooth="yes"/>
      <point x="406" y="96"/>
      <point x="419" y="128"/>
    </contour>
  </outline>
</glyph>
<glyph name="uni3009" format="1">
  <advance width="1100"/>
  <unicode hex="3009"/>
  <outline>
    <contour>
      <point x="154" y="-13" type="line"/>
      <point x="100" y="13" type="line"/>
      <point x="433" y="677" type="line"/>
      <point x="100" y="1342" type="line"/>
      <point x="154" y="1368" type="line"/>
      <point x="501" y="677" type="line"/>
    </contour>
  </outline>
</glyph>
<glyph name="uniFF01" format="1">
  <advance width="1100"/>
  <unicode hex="FF01"/>
  <outline>
    <contour>
      <point x="325" y="1156" type="curve" smooth="yes"/>
      <point x="325" y="1111"/>
      <point x="323" y="979"/>
      <point x="321" y="953" type="curve" smooth="yes"/>
      <point x="257" y="314" type="line" smooth="yes"/>
      <point x="255" y="291"/>
      <point x="211" y="291"/>
      <point x="208" y="314" type="curve" smooth="yes"/>
      <point x="148" y="953" type="line"/>
      <point x="145" y="999"/>
      <point x="142" y="1111"/>
      <point x="142" y="1156" type="curve" smooth="yes"/>
      <point x="142" y="1197"/>
      <point x="168" y="1209"/>
      <point x="235" y="1209" type="curve" smooth="yes"/>
      <point x="302" y="1209"/>
      <point x="325" y="1194"/>
    </contour>
    <contour>
      <point x="335" y="108" type="curve" smooth="yes"/>
      <point x="335" y="27"/>
      <point x="288" y="-26"/>
      <point x="235" y="-26" type="curve" smooth="yes"/>
      <point x="178" y="-26"/>
      <point x="137" y="29"/>
      <point x="137" y="108" type="curve" smooth="yes"/>
      <point x="137" y="193"/>
      <point x="187" y="238"/>
      <point x="235" y="238" type="curve" smooth="yes"/>
      <point x="282" y="238"/>
      <point x="335" y="189"/>
    </contour>
  </outline>
</glyph>
<glyph name="uniFF08" format="1">
  <advance width="1099"/>
  <unicode hex="FF08"/>
  <outline>
    <contour>
      <point x="935" y="24" type="curve" smooth="yes"/>
      <point x="926" y="16"/>
      <point x="894" y="17"/>
      <point x="859" y="32" type="curve" smooth="yes"/>
      <point x="710" y="96"/>
      <point x="547" y="292"/>
      <point x="547" y="676" type="curve" smooth="yes"/>
      <point x="547" y="1083"/>
      <point x="718" y="1256"/>
      <point x="859" y="1335" type="curve" smooth="yes"/>
      <point x="893" y="1354"/>
      <point x="925" y="1360"/>
      <point x="935" y="1354" type="curve" smooth="yes"/>
      <point x="942" y="1350"/>
      <point x="934" y="1339"/>
      <point x="891" y="1317" type="curve" smooth="yes"/>
      <point x="797" y="1268"/>
      <point x="632" y="1056"/>
      <point x="632" y="682" type="curve" smooth="yes"/>
      <point x="632" y="308"/>
      <point x="793" y="95"/>
      <point x="891" y="57" type="curve" smooth="yes"/>
      <point x="935" y="39"/>
      <point x="941" y="28"/>
    </contour>
  </outline>
</glyph>
